<svg xmlns="http://www.w3.org/2000/svg" xmlns:xlink="http://www.w3.org/1999/xlink" width="406.553" height="337.368" viewBox="0 0 406.553 337.368"><defs><style>.a{fill:#A0A8A0;}.b{filter:url(#a);}</style><filter id="a" x="0" y="0" width="406.553" height="337.368" filterUnits="userSpaceOnUse"><feOffset dx="15" dy="15" input="SourceAlpha"/><feGaussianBlur stdDeviation="5" result="b"/><feFlood flood-opacity="0.161"/><feComposite operator="in" in2="b"/><feComposite in="SourceGraphic"/></filter></defs><g transform="translate(-24.98 -80.981)"><g class="b" transform="matrix(1, 0, 0, 1, 24.98, 80.98)"><path class="a" d="M392.858,362.229c-14.432,9.153-64.783,35.778-110.188,1.664-54.162,45.763-110.594,14.977-124.945,5.824l81.242-38.857c12.081,8.737,42.243,24.712,77.188-.333ZM136,150.723a66.955,66.955,0,0,1,107.594,29.954h27.405a66.833,66.833,0,1,1,63.729,87.032c-1.946,0-3.892-.083-5.757-.25a168.767,168.767,0,0,1,9.811,50.089l-25.784-10.733-4.622,3.744c-33.162,27.125-61.053.582-61.053.582l-5.027-4.826L206.7,323.289c-2.351-24.046,4.946-47.094,13.216-68.894a66.835,66.835,0,0,1-106.864-53.417,70.68,70.68,0,0,1,.73-10.234L42.85,248.239l4.589,40.521-16.784,2L24.98,240.667ZM334.723,250.4c27.486,0,49.945-22.049,49.945-49.424,0-27.291-22.459-49.34-49.945-49.34-24.243,0-44.594,17.14-49.054,39.855a275.457,275.457,0,0,1,35.594,57.079,51.093,51.093,0,0,0,13.459,1.831ZM129.914,200.978c0,27.374,22.459,49.424,49.945,49.424s49.945-22.049,49.945-49.424c0-27.291-22.459-49.34-49.945-49.34a50.32,50.32,0,0,0-29.919,9.818l-3.405,2.746a48.947,48.947,0,0,0-16.621,36.777ZM394.885,99.052s-58.864-40.6-118.539-.083l18.73,28.955c40.7-27.707,80.918-.083,80.918-.083ZM139,127.841s40.216-27.624,81,.083l18.648-28.955c-59.594-40.521-118.458.083-118.458.083Z" transform="translate(-24.98 -80.98)"/></g></g></svg>